# xmcd
#
# Track frame offsets:
#  187
#  11295
#  20457
#  31450
#  42212
#  54992
#  66055
#  74182
#  85812
#  96335
#  109085
#
# Disc length: 1563 seconds
#
# Revision: 4
# Processed by: cddbd v1.5.1PL2 Copyright (c) Steve Scherf et al.
# Submitted via: Collectorz.com_Music_Collector 6.11
#
DISCID=8c06190b
DTITLE=Roger Miller - King of the Road
DYEAR=1900
DGENRE=
TTITLE0=King of the Road
TTITLE1=Chug-a-lug
TTITLE2=Everything's Coming up Roses
TTITLE3=Burning Bridges
TTITLE4=Heartaches by the Number
TTITLE5=Husbands and Wives
TTITLE6=In the Summertime
TTITLE7=Walkin in the Sunshine
TTITLE8=Kansas City Star
TTITLE9=The Last Word in Lonesome is Me
TTITLE10=Do Wacka Do
EXTD=
EXTT0=
EXTT1=
EXTT2=
EXTT3=
EXTT4=
EXTT5=
EXTT6=
EXTT7=
EXTT8=
EXTT9=
EXTT10=
PLAYORDER=
